<svg clip-rule="evenodd" fill-rule="evenodd" stroke-linejoin="round" stroke-miterlimit="2" viewBox="0 0 24 24" xmlns="http://www.w3.org/2000/svg"><path d="m17.499 13c2.484 0 4.5 2.016 4.5 4.5s-2.016 4.5-4.5 4.5c-2.483 0-4.5-2.016-4.5-4.5s2.017-4.5 4.5-4.5zm-4.749 7.999h-8.75c-.48 0-1-.379-1-1v-16c0-.481.38-1 1-1h16c.621 0 1 .522 1 1v8.753c-.455-.336-.959-.608-1.5-.803v-3.95h-15v11.5h7.447c.195.541.467 1.045.803 1.5zm5.456-3.499s.642-.642 1.061-1.061c.187-.187.187-.519 0-.707-.188-.187-.52-.187-.707 0-.419.419-1.061 1.061-1.061 1.061s-.642-.642-1.061-1.061c-.187-.187-.519-.187-.707 0-.187.188-.187.52 0 .707.419.419 1.061 1.061 1.061 1.061s-.642.642-1.061 1.061c-.187.187-.187.519 0 .707.188.187.52.187.707 0 .419-.419 1.061-1.061 1.061-1.061s.642.642 1.061 1.061c.187.187.519.187.707 0 .187-.188.187-.52 0-.707-.419-.419-1.061-1.061-1.061-1.061z" fill-rule="nonzero"/></svg>